HIERARCHY
ROOT Hips
{
	OFFSET 0.000000 0.000000 0.000000 
	CHANNELS 6 Xposition Yposition Zposition Yrotation Zrotation Xrotation 
	JOINT Lumbar
	{
		OFFSET 0.000000 0.000000 0.000000 
		CHANNELS 3 Zrotation Xrotation Yrotation
		JOINT Neck
		{
			OFFSET 0.000000 0.445665 0.000000 
			CHANNELS 3 Zrotation Xrotation Yrotation
			End Site
			{
				OFFSET 0.000000 0.227535 0.000000 
			}
		}
		JOINT RightShoulder
		{
			OFFSET 0.019635 0.377685 0.194865 
			CHANNELS 3 Zrotation Xrotation Yrotation
			JOINT RightElbow
			{
				OFFSET 0.000000 -0.243375 0.000000 
				CHANNELS 2 Zrotation Yrotation
				JOINT RightWrist
				{
					OFFSET 0.000000 -0.264825 0.000000 
					CHANNELS 2 Zrotation Xrotation
					End Site
					{
						OFFSET 0.006600 -0.176220 0.000990 
					}
				}
			}
		}
		JOINT LeftShoulder
		{
			OFFSET 0.019635 0.377685 -0.194865 
			CHANNELS 3 Zrotation Xrotation Yrotation
			JOINT LeftElbow
			{
				OFFSET 0.000000 -0.243375 0.000000 
				CHANNELS 2 Zrotation Yrotation
				JOINT LeftWrist
				{
					OFFSET 0.000000 -0.264825 0.000000 
					CHANNELS 2 Zrotation Xrotation
					End Site
					{
						OFFSET 0.006600 -0.176220 -0.000990 
					}
				}
			}
		}
	}
	JOINT RightHip
	{
		OFFSET 0.052140 -0.069960 0.075570 
		CHANNELS 3 Zrotation Xrotation Yrotation
		JOINT RightKnee
		{
			OFFSET 0.000000 -0.402270 0.000000 
			CHANNELS 1 Zrotation
			JOINT RightAnkle
			{
				OFFSET 0.000000 -0.404085 0.000000 
				CHANNELS 3 Zrotation Xrotation Yrotation
				End Site
				{
					OFFSET 0.204105 -0.089430 0.008415 
				}
			}
		}
	}
	JOINT LeftHip
	{
		OFFSET 0.052140 -0.069960 -0.075570 
		CHANNELS 3 Zrotation Xrotation Yrotation
		JOINT LeftKnee
		{
			OFFSET 0.000000 -0.402270 0.000000 
			CHANNELS 1 Zrotation
			JOINT LeftAnkle
			{
				OFFSET 0.000000 -0.404085 0.000000 
				CHANNELS 3 Zrotation Xrotation Yrotation
				End Site
				{
					OFFSET 0.204105 -0.089430 -0.008415 
				}
			}
		}
	}
}
MOTION
Frames: 11
Frame Time: 0.02
0.47343 0.65988 -0.02946 183.3799 0 -1.02363 18.14132 2.51136 -24.04271 -61.27902 -27.41796 -3.10264 56.13316 0.0691 27.75696 18.95207 95.64547 -7.596 -9.854 32.26251 26.62251 13.47571 47.21577 -73.8145 -9.62878 -0.17018 83.41887 5.97847 -13.30797 -110.79329 -14.72151 -1.32245 -8.32823 73.27092 -4.99488 -5.11222 -79.47917 -5.95855 2.02717 4.96857
0.47325 0.66003 -0.02915 183.48935 0 -1.06218 17.78438 2.61584 -24.42968 -61.54198 -28.5129 -3.60153 56.51535 0.91755 27.69135 18.76301 94.62272 -7.35365 -9.84688 32.03466 27.52956 13.24551 48.34097 -72.97697 -9.9055 -0.38262 83.19635 5.91052 -13.16816 -110.54634 -15.21169 -1.23014 -8.68512 73.32918 -5.22275 -5.30776 -80.84727 -5.50312 2.14019 5.47563
0.47301 0.66018 -0.02878 183.63063 0 -1.11349 17.39299 2.72536 -24.49097 -61.7698 -29.39052 -4.13605 56.73749 1.68226 27.52053 18.61274 93.53763 -7.12824 -9.87774 31.86066 28.37306 12.91977 49.29377 -72.29497 -10.18577 -0.51546 82.86513 5.83568 -12.94697 -110.13462 -15.66668 -1.13402 -9.12207 73.37818 -5.47603 -5.54065 -82.11507 -5.09859 2.26199 5.96765
0.47279 0.66033 -0.02844 183.75844 0 -1.15915 17.01731 2.8325 -24.68354 -62.00986 -30.3539 -4.65677 57.02417 2.48344 27.39159 18.44459 92.50253 -6.90074 -9.89043 31.6642 29.24133 12.64572 50.30468 -71.56357 -10.46526 -0.67757 82.57666 5.76646 -12.7543 -109.78413 -16.1183 -1.04402 -9.50078 73.43393 -5.71489 -5.75086 -83.42458 -4.67582 2.37784 6.45279
0.4726 0.66048 -0.02808 183.88241 0 -1.20438 16.64155 2.94043 -24.95503 -62.26905 -31.38121 -5.16627 57.35057 3.29287 27.28832 18.27663 91.37327 -6.64934 -9.90641 31.46416 30.12863 12.33304 51.40107 -70.74398 -10.74462 -0.86704 82.31367 5.68706 -12.59523 -109.48582 -16.65506 -0.93513 -9.97413 73.47869 -5.96623 -5.98725 -84.74785 -4.2309 2.50241 6.99454
0.47234 0.66063 -0.02775 184.02163 0 -1.2534 16.25767 3.04761 -24.97761 -62.47771 -32.21702 -5.7094 57.55287 4.06493 27.10665 18.11786 90.43055 -6.45254 -9.92397 31.27997 30.96141 12.07944 52.27946 -70.14302 -11.02437 -0.98169 81.97363 5.62777 -12.3477 -109.04248 -17.00406 -0.86481 -10.26784 73.54457 -6.1971 -6.17719 -86.01891 -3.84588 2.61017 7.41323
0.4719 0.6608 -0.0275 184.1975 0 -1.3105 15.86043 3.1531 -24.44208 -62.56799 -32.61688 -6.31917 57.46917 4.74968 26.73072 17.97469 89.96385 -6.39324 -9.94662 31.15814 31.64808 12.01292 52.5845 -70.12516 -11.29648 -0.90446 81.43738 5.61728 -11.87584 -108.23112 -16.85331 -0.90192 -10.05416 73.66695 -6.36993 -6.22951 -87.17843 -3.60077 2.67628 7.52185
0.47139 0.66096 -0.02728 184.38728 0 -1.37079 15.45605 3.25726 -23.65791 -62.60586 -32.82327 -6.96429 57.26256 5.39969 26.28024 17.83965 89.69474 -6.38953 -9.96803 31.04483 32.28337 12.00908 52.67781 -70.31896 -11.56927 -0.75575 80.82978 5.62848 -11.31837 -107.28214 -16.51331 -0.97794 -9.65573 73.81165 -6.52051 -6.23345 -88.28731 -3.41704 2.72395 7.50328
0.47091 0.66112 -0.02705 184.56904 0 -1.42918 15.05458 3.36101 -22.95405 -62.65932 -33.09155 -7.60527 57.09998 6.06911 25.86578 17.70118 89.37327 -6.36681 -9.98344 30.90567 32.9496 11.9773 52.87754 -70.40407 -11.84694 -0.64311 80.26129 5.63533 -10.79995 -106.40132 -16.25203 -1.03636 -9.33549 73.94874 -6.67807 -6.25951 -89.41522 -3.21327 2.77552 7.52579
0.47044 0.6613 -0.02677 184.75869 0 -1.49011 14.6535 3.46946 -22.37525 -62.74677 -33.46254 -8.19914 56.98097 6.72282 25.43778 17.5628 88.90049 -6.31997 -10.02726 30.85856 33.58325 11.94179 53.0308 -70.54629 -12.10487 -0.51259 79.65944 5.61948 -10.27673 -105.48883 -16.01725 -1.0947 -9.04005 74.07473 -6.84931 -6.28672 -90.55852 -2.97647 2.84615 7.61637
0.46993 0.66144 -0.02662 184.93528 0 -1.54609 14.25015 3.56744 -21.48323 -62.75089 -33.5761 -8.89657 56.74517 7.39898 25.02268 17.42582 88.77945 -6.33427 -10.01188 30.62439 34.27131 11.92771 53.22958 -70.61914 -12.40152 -0.40331 79.11319 5.6552 -9.7459 -104.61448 -15.68661 -1.16196 -8.65102 74.22937 -6.987 -6.29909 -91.65636 -2.82444 2.87281 7.53761
